#N canvas 438 240 804 561 10;
#X obj 123 435 dac~;
#X obj 122 348 clip~ -1 1;
#X obj 123 383 hip~ 4;
#X obj 120 183 ross~, f 19;
#X obj 215 235 else/numbox~ 6 10 100 #C0C0C4 #440008 10 0 0 0;
#X msg 217 138 a \$1;
#X msg 261 138 b \$1;
#X msg 300 138 c \$1;
#X floatatom 217 113 5 0 1 0 - a - 0;
#X floatatom 262 113 5 0 1 0 - b - 0;
#X floatatom 303 113 5 0 0 0 - c - 0;
#X msg 472 225 \; pd dsp 1;
#X obj 475 163 loadbang;
#X floatatom 115 98 5 0 0 0 - pitch - 0;
#X msg 113 121 pitch \$1;
#X msg 474 267 \; pd dsp 0;
#X msg 565 220 \; a 0.2 \; b 0.2 \; c 5.7 \; pitch 0;
#X floatatom 201 25 5 0 1 0 - - - 0;
#X msg 201 45 mix \$1;
#X floatatom 257 23 5 0 10 0 - - - 0;
#X msg 257 43 gain \$1;
#X obj 246 352 else/meter~;
#X obj 119 287 *~ 0.1;
#X msg 68 165 reset;
#X connect 1 0 2 0;
#X connect 2 0 0 0;
#X connect 2 0 0 1;
#X connect 3 0 4 0;
#X connect 3 0 22 0;
#X connect 5 0 3 0;
#X connect 6 0 3 0;
#X connect 7 0 3 0;
#X connect 8 0 5 0;
#X connect 9 0 6 0;
#X connect 10 0 7 0;
#X connect 12 0 11 0;
#X connect 12 0 16 0;
#X connect 13 0 14 0;
#X connect 14 0 3 0;
#X connect 17 0 18 0;
#X connect 18 0 3 0;
#X connect 19 0 20 0;
#X connect 20 0 3 0;
#X connect 22 0 1 0;
#X connect 22 0 21 0;
#X connect 23 0 3 0;
